<?xml version="1.0" encoding="UTF-8"?>
<svg xmlns="http://www.w3.org/2000/svg" xml:space="preserve" height="990" width="765"><title>Closing a business checklist</title>
<g font-family="Arial,Calibri,sans-serif" transform="translate(-14)" font-size="13.8px">
<g font-size="17.5px">
<text y="286.67499" x="88">❑</text>
<text y="326.57501" x="88">❑</text>
<text y="420.96249" x="88">❑</text>
<text y="460.86249" x="88">❑</text>
<text y="500.76251" x="88">❑</text>
<text y="540.6875" x="88">❑</text>
<text y="616.88751" x="88">❑</text>
<text y="62.700001" x="294.66251">Closing a Business Checklist</text>
<text y="674.9375" x="88">❑</text>
<text y="714.875" x="88">❑</text>
<text y="754.77502" x="88">❑</text>
<text y="794.67499" x="88">❑</text>
<text y="834.57501" x="88">❑</text>
<text y="874.5" x="88">❑</text>
<text y="914.40002" x="88">❑</text>
</g>
<text y="286.67499" x="110">Make final federal tax deposits</text>
<text y="304.82501" x="127">❑</text>
<text y="304.82501" x="157">Electronic Federal Tax Paying System (EFTPS)</text>
<text y="326.57501" x="110">File final quarterly or annual employment tax form.</text>
<text y="344.76251" x="127">❑</text>
<text y="344.76251" x="157">Form 940, Employer&apos;s Annual Federal Unemployment (FUTA) Tax Return (PDF)</text>
<text y="362.91251" x="127">❑</text>
<text y="362.91251" x="157">Form 941, Employer&apos;s Quarterly Federal Tax Return (PDF)</text>
<text y="381.0625" x="127">❑</text>
<text y="381.0625" x="157">Form 943, Employer&apos;s Annual Tax Return for Agricultural Employees (PDF)</text>
<text y="399.21249" x="127">❑</text>
<text y="399.21249" x="157">Form 943-A, Agricultural Employer&apos;s Record of Federal Tax Liability (PDF)</text>
<text y="420.96249" x="110">Issue final wage and withholding information to employees</text>
<text y="439.11249" x="127">❑</text>
<text y="439.11249" x="157">Form W-2, Wage and Tax Statement (PDF)</text>
<text y="460.86249" x="110">Report information from W-2s issued.</text>
<text y="479.01251" x="127">❑</text>
<text y="479.01251" x="157">Form W-3, Transmittal of Income and Tax Statements (PDF)</text>
<text y="500.76251" x="110">File final tip income and allocated tips information return.</text>
<text y="518.9375" x="127">❑</text>
<text y="518.9375" x="157">Form 8027, Employer&apos;s Annual Information Return of Tip Income and Allocated Tips (PDF)</text>
<text y="540.6875" x="110">Report capital gains or losses.</text>
<text y="558.83752" x="127">❑</text>
<text y="558.83752" x="157">Form 1040, U.S. Individual Income Tax Return (PDF)</text>
<text y="576.98749" x="127">❑</text>
<text y="576.98749" x="157">Form 1065, U.S. Partnership Return of Income (PDF)</text>
<text y="595.13751" x="127">❑</text>
<text y="595.13751" x="157">Form 1120 (Schedule D), Capital Gains and Losses (PDF)</text>
<text y="616.88751" x="110">Report partner&apos;s/shareholder&apos;s shares.</text>
<text y="635.03748" x="127">❑</text>
<text y="635.03748" x="157">Form 1065 (Schedule K-1), Partner&apos;s Share of Income, Credits, Deductions, etc. (PDF)</text>
<text y="653.1875" x="127">❑</text>
<text y="653.1875" x="157">Form 1120S (Schedule K-1), Shareholder&apos;s Share of Income, Credits, Deductions, etc. (PDF)</text>
<text y="674.9375" x="110">File final employee pension/benefit plan.</text>
<text y="693.08752" x="127">❑</text>
<text y="693.08752" x="157">Form 5500, Annual Return/Report of Employee Benefit Plan</text>
<text y="714.875" x="110">Issue payment information to sub-contractors.</text>
<text y="733.02502" x="127">❑</text>
<text y="733.02502" x="157">Form 1099-MISC, Miscellaneous Income (PDF)</text>
<text y="754.77502" x="110">Report information from 1099s issued.</text>
<text y="772.92499" x="127">❑</text>
<text y="772.92499" x="157">Form 1096, Annual Summary and Transmittal of U.S. Information Returns (PDF)</text>
<text y="794.67499" x="110">Report corporate dissolution or liquidation.</text>
<text y="812.82501" x="127">❑</text>
<text y="812.82501" x="157">Form 966, Corporate Dissolution or Liquidation (PDF)</text>
<text y="834.57501" x="110">Consider allowing S corporation election to terminate.</text>
<text y="852.72498" x="127">❑</text>
<text y="852.72498" x="157">Form 1120S, Instructions (PDF)</text>
<text y="874.5" x="110">Report business asset sales.</text>
<text y="892.65002" x="127">❑</text>
<text y="892.65002" x="157">Form 8594, Asset Acquisition Statement (PDF)</text>
<text y="914.40002" x="110">Report the sale or exchange of property used in your trade or business.</text>
<text y="932.54999" x="127">❑</text>
<text y="932.54999" x="157">Form 4797, Sales of Business Property (PDF)</text>
<g font-size="11.2px">
<text y="82.650002" x="83">There are typical actions that are taken when closing a business. You must file an annual return for the year you go out of business. If </text>
<text y="97.5" x="83">you have employees, you must file the final employment tax returns, in addition to making final federal tax deposits of these taxes. </text>
<text y="112.35" x="83">Also attach a statement to your return showing the name of the person keeping the payroll records and the address where those </text>
<text y="127.2" x="83">records will be kept.</text>
<text y="158.10001" x="83">The annual tax return for a partnership, corporation, S corporation, limited liability company or trust includes check boxes near the top </text>
<text y="172.97501" x="83">front page just below the entity information. For the tax year in which your business ceases to exist, check the box that indicates this </text>
<text y="187.825" x="83">tax return is a final return. If there are Schedule K-1s, repeat the same procedure on the Schedule K-1.</text>
<text y="217.675" x="83">You will also need to file returns to report disposing of business property, reporting the exchange of like-kind property, and/or </text>
<text y="232.52499" x="83">changing the form of your business. If you do not have a pre-printed envelope in which to send your taxes, refer to the Where To File </text>
<text y="247.375" x="83">page for a list of addresses. Below is a list of typical actions to take when closing a business, depending on your type of business </text>
<text y="262.22501" x="83">structure:</text>
</g></g></svg>